HIERARCHY
ROOT Hips
{
	OFFSET	0.00	0.00	0.00
	CHANNELS 6 Xposition Yposition Zposition Zrotation Xrotation Yrotation
	JOINT LeftUpperLeg
	{
		OFFSET	-0.060319	-0.072984	 0.002079
		CHANNELS 3 Zrotation Xrotation Yrotation
		JOINT LeftLowerLeg
		{
			OFFSET	 0.351798	-0.005146	-0.008011
			CHANNELS 3 Zrotation Xrotation Yrotation
			JOINT LeftFoot
			{
				OFFSET	 0.378666	 0.003778	 0.003828
				CHANNELS 3 Zrotation Xrotation Yrotation
				JOINT LeftToes
				{
					OFFSET	 0.084296	 0.003922	 0.047710
					CHANNELS 3 Zrotation Xrotation Yrotation
					End Site
					{
						OFFSET	 0.084296	 0.003922	 0.047710
					}
				}
			}
		}
	}
	JOINT RightUpperLeg
	{
		OFFSET	-0.060836	 0.072553	 0.002079
		CHANNELS 3 Zrotation Xrotation Yrotation
		JOINT RightLowerLeg
		{
			OFFSET	 0.351363	 0.018233	-0.008011
			CHANNELS 3 Zrotation Xrotation Yrotation
			JOINT RightFoot
			{
				OFFSET	 0.378545	 0.010315	 0.003824
				CHANNELS 3 Zrotation Xrotation Yrotation
				JOINT RightToes
				{
					OFFSET	 0.084392	-0.002027	 0.047660
					CHANNELS 3 Zrotation Xrotation Yrotation
					End Site
					{
						OFFSET	 0.084392	-0.002027	 0.047660
					}
				}
			}
		}
	}
	JOINT Character1_Spine
	{
		OFFSET	 0.022713	 0.000080	 0.008181
		CHANNELS 3 Zrotation Xrotation Yrotation
		JOINT Spine
		{
			OFFSET	 0.091343	 0.000000	 0.001755
			CHANNELS 3 Zrotation Xrotation Yrotation
			JOINT Chest
			{
				OFFSET	 0.087667	 0.000000	-0.000304
				CHANNELS 3 Zrotation Xrotation Yrotation
				JOINT LeftShoulder
				{
					OFFSET	 0.122367	-0.042227	-0.001395
					CHANNELS 3 Zrotation Xrotation Yrotation
					JOINT LeftUpperArm
					{
						OFFSET	 0.055437	-0.000001	 0.000000
						CHANNELS 3 Zrotation Xrotation Yrotation
						JOINT LeftLowerArm
						{
							OFFSET	 0.233777	-0.000011	 0.000017
							CHANNELS 3 Zrotation Xrotation Yrotation
							JOINT LeftHand
							{
								OFFSET	 0.162482	 0.000000	-0.000001
								CHANNELS 3 Zrotation Xrotation Yrotation
								JOINT LeftIndexProximal
								{
									OFFSET	 0.080750	 0.001428	 0.025713
									CHANNELS 3 Zrotation Xrotation Yrotation
									JOINT LeftIndexIntermediate
									{
										OFFSET	 0.024260	 0.001187	 0.002507
										CHANNELS 3 Zrotation Xrotation Yrotation
										JOINT LeftIndexDistal
										{
											OFFSET	 0.016097	 0.000458	 0.000118
											CHANNELS 3 Zrotation Xrotation Yrotation
											End Site
											{
												OFFSET	 0.016097	 0.000458	 0.000118
											}
										}
									}
								}
								JOINT LeftMiddleProximal
								{
									OFFSET	 0.080696	 0.006021	 0.005822
									CHANNELS 3 Zrotation Xrotation Yrotation
									JOINT LeftMiddleIntermediate
									{
										OFFSET	 0.025063	-0.003793	 0.001482
										CHANNELS 3 Zrotation Xrotation Yrotation
										JOINT LeftMiddleDistal
										{
											OFFSET	 0.019431	-0.000162	-0.000068
											CHANNELS 3 Zrotation Xrotation Yrotation
											End Site
											{
												OFFSET	 0.019431	-0.000162	-0.000068
											}
										}
									}
								}
								JOINT LeftLittleProximal
								{
									OFFSET	 0.065753	 0.002283	-0.027836
									CHANNELS 3 Zrotation Xrotation Yrotation
									JOINT LeftLittleIntermediate
									{
										OFFSET	 0.018097	 0.000014	 0.000133
										CHANNELS 3 Zrotation Xrotation Yrotation
										JOINT LeftLittleDistal
										{
											OFFSET	 0.013911	-0.000247	 0.000003
											CHANNELS 3 Zrotation Xrotation Yrotation
											End Site
											{
												OFFSET	 0.013911	-0.000247	 0.000003
											}
										}
									}
								}
								JOINT LeftRingProximal
								{
									OFFSET	 0.076793	 0.006246	-0.012626
									CHANNELS 3 Zrotation Xrotation Yrotation
									JOINT LeftRingIntermediate
									{
										OFFSET	 0.023683	-0.001098	-0.000754
										CHANNELS 3 Zrotation Xrotation Yrotation
										JOINT LeftRingDistal
										{
											OFFSET	 0.015907	 0.000860	 0.000167
											CHANNELS 3 Zrotation Xrotation Yrotation
											End Site
											{
												OFFSET	 0.015907	 0.000860	 0.000167
											}
										}
									}
								}
								JOINT LeftThumbProximal
								{
									OFFSET	 0.024761	-0.014236	 0.018266
									CHANNELS 3 Zrotation Xrotation Yrotation
									JOINT LeftThumbIntermediate
									{
										OFFSET	 0.032146	-0.001523	 0.001986
										CHANNELS 3 Zrotation Xrotation Yrotation
										JOINT LeftThumbDistal
										{
											OFFSET	 0.017566	-0.000085	-0.001004
											CHANNELS 3 Zrotation Xrotation Yrotation
											End Site
											{
												OFFSET	 0.017566	-0.000085	-0.001004
											}
										}
									}
								}
							}
						}
					}
				}
				JOINT Neck
				{
					OFFSET	 0.156851	-0.000286	 0.008298
					CHANNELS 3 Zrotation Xrotation Yrotation
					JOINT Head
					{
						OFFSET	 0.078083	 0.000000	-0.005534
						CHANNELS 3 Zrotation Xrotation Yrotation
						End Site
						{
							OFFSET	 0.078083	 0.000000	-0.005534
						}
					}
				}
				JOINT RightShoulder
				{
					OFFSET	 0.122455	 0.041994	-0.000150
					CHANNELS 3 Zrotation Xrotation Yrotation
					JOINT RightUpperArm
					{
						OFFSET	 0.055437	 0.000001	 0.000000
						CHANNELS 3 Zrotation Xrotation Yrotation
						JOINT RightLowerArm
						{
							OFFSET	 0.233779	 0.000012	 0.000017
							CHANNELS 3 Zrotation Xrotation Yrotation
							JOINT RightHand
							{
								OFFSET	 0.162480	-0.000002	-0.000001
								CHANNELS 3 Zrotation Xrotation Yrotation
								JOINT RightIndexProximal
								{
									OFFSET	 0.077459	-0.023877	 0.024774
									CHANNELS 3 Zrotation Xrotation Yrotation
									JOINT RightIndexIntermediate
									{
										OFFSET	 0.024233	 0.002008	-0.002230
										CHANNELS 3 Zrotation Xrotation Yrotation
										JOINT RightIndexDistal
										{
											OFFSET	 0.015886	 0.002643	 0.000001
											CHANNELS 3 Zrotation Xrotation Yrotation
											End Site
											{
												OFFSET	 0.015886	 0.002643	 0.000001
											}
										}
									}
								}
								JOINT RightMiddleProximal
								{
									OFFSET	 0.077341	-0.024111	 0.004360
									CHANNELS 3 Zrotation Xrotation Yrotation
									JOINT RightMiddleIntermediate
									{
										OFFSET	 0.025355	-0.001169	-0.000680
										CHANNELS 3 Zrotation Xrotation Yrotation
										JOINT RightMiddleDistal
										{
											OFFSET	 0.019416	 0.000705	-0.000417
											CHANNELS 3 Zrotation Xrotation Yrotation
											End Site
											{
												OFFSET	 0.019416	 0.000705	-0.000417
											}
										}
									}
								}
								JOINT RightLittleProximal
								{
									OFFSET	 0.065019	-0.010365	-0.027722
									CHANNELS 3 Zrotation Xrotation Yrotation
									JOINT RightLittleIntermediate
									{
										OFFSET	 0.018098	 0.000052	-0.000144
										CHANNELS 3 Zrotation Xrotation Yrotation
										JOINT RightLittleDistal
										{
											OFFSET	 0.013886	-0.000828	 0.000267
											CHANNELS 3 Zrotation Xrotation Yrotation
											End Site
											{
												OFFSET	 0.013886	-0.000828	 0.000267
											}
										}
									}
								}
								JOINT RightRingProximal
								{
									OFFSET	 0.074304	-0.019655	-0.013711
									CHANNELS 3 Zrotation Xrotation Yrotation
									JOINT RightRingIntermediate
									{
										OFFSET	 0.023458	 0.003508	-0.000008
										CHANNELS 3 Zrotation Xrotation Yrotation
										JOINT RightRingDistal
										{
											OFFSET	 0.015893	-0.000379	-0.001033
											CHANNELS 3 Zrotation Xrotation Yrotation
											End Site
											{
												OFFSET	 0.015893	-0.000379	-0.001033
											}
										}
									}
								}
								JOINT RightThumbProximal
								{
									OFFSET	 0.026339	 0.004527	 0.020861
									CHANNELS 3 Zrotation Xrotation Yrotation
									JOINT RightThumbIntermediate
									{
										OFFSET	 0.032030	-0.000602	 0.001128
										CHANNELS 3 Zrotation Xrotation Yrotation
										JOINT RightThumbDistal
										{
											OFFSET	 0.017586	-0.000153	 0.000511
											CHANNELS 3 Zrotation Xrotation Yrotation
											End Site
											{
												OFFSET	 0.017586	-0.000153	 0.000511
											}
										}
									}
								}
							}
						}
					}
				}
			}
		}
	}
}
MOTION
Frames:    4
Frame Time: 0.01666667
 0.043088	-0.057425	 0.863857	 97.686000	-0.009225	-88.620080	-178.447100	 1.362908	-0.127126	 3.277601	-3.114067	 19.620160	-7.498696	-0.727895	-45.342540	-2.826673	-1.476238	-62.555950	 170.072200	 6.457293	-4.848918	-0.667033	-0.359430	 19.722600	 9.022933	-7.460473	-39.785970	 0.003016	-0.006121	-62.519560	 0.203542	 0.000000	-4.902169	 0.270659	-1.407717	 9.437234	 1.475977	-0.825676	 13.470210	-92.919490	 18.029550	 1.691523	-70.178520	 9.474411	 18.120270	-1.368556	-6.527813	-20.266590	 16.428410	-17.855890	-4.653421	-2.686045	 11.479670	 13.861240	-17.217480	-0.385400	-0.516138	-17.353270	-0.466274	 0.628652	-3.826344	 8.297500	 8.630448	-31.067540	-2.331623	 0.982470	-26.366530	-2.391591	 7.949260	-15.800650	-14.875520	 0.715967	-9.541280	 4.340986	 7.344770	-34.313990	-2.294952	 15.594250	-12.938290	-9.362948	 4.854468	-33.381530	-0.543325	 10.437310	-20.829060	-5.046879	 7.521268	 111.736600	 49.854130	-126.323500	-19.032770	 0.543832	-9.628747	-25.348660	-0.976149	-0.758772	-3.754176	-1.165709	-23.039740	-2.272737	-0.609771	 8.066215	 89.662120	-18.084890	-0.891729	 67.736530	-2.512564	 18.429750	-0.508616	 8.511403	-17.710280	 8.258172	-0.128571	 3.885155	-174.971500	-9.551247	 171.529000	-31.897290	-0.765029	-3.927482	-3.656667	-3.353687	-1.373838	 176.698300	-7.544115	 175.926900	-41.572750	-0.978729	-7.134737	-51.993660	 1.487866	-5.715818	-167.032100	-28.279910	-175.116000	-9.062943	 0.683518	-8.047174	-38.461980	 5.871815	-21.148140	-158.412400	-25.410040	-172.808700	-14.724330	-1.090116	-12.547300	-43.814390	 3.111576	-12.954400	 49.688370	 53.765830	-56.530720	-20.810670	 3.803959	 8.623093	-30.770470	-2.362319	 9.390638
 0.043088	-0.057425	 0.863809	 97.686040	-0.009256	-88.620110	-178.445600	 1.393464	-0.134887	 3.263529	-3.110299	 19.637110	-7.497892	-0.762726	-45.355460	-2.826673	-1.476238	-62.555950	 170.067400	 6.413911	-4.857213	-0.648412	-0.364105	 19.737060	 9.021005	-7.410563	-39.799090	 0.003016	-0.006121	-62.519630	 0.203542	 0.000000	-4.902169	 0.271545	-1.407465	 9.448586	 1.475200	-0.825904	 13.413650	-92.919510	 18.029540	 1.691533	-70.183110	 9.490853	 18.044630	-1.367762	-6.536951	-20.239430	 16.421050	-17.865040	-4.689780	-2.686052	 11.479680	 13.861260	-17.217410	-0.385394	-0.516138	-17.353250	-0.466277	 0.628653	-3.826343	 8.297519	 8.630509	-31.067500	-2.331622	 0.982464	-26.366540	-2.391591	 7.949261	-15.800640	-14.875500	 0.716102	-9.541263	 4.340984	 7.344762	-34.314000	-2.294957	 15.594260	-12.938260	-9.362938	 4.854481	-33.381670	-0.543350	 10.437360	-20.829090	-5.046880	 7.521277	 111.736600	 49.854190	-126.323600	-19.032760	 0.543830	-9.628743	-25.348660	-0.976149	-0.758772	-3.755019	-1.164110	-23.016890	-2.273445	-0.609678	 8.084378	 89.661990	-18.084890	-0.891767	 67.733320	-2.518718	 18.434330	-0.507354	 8.513145	-17.824050	 8.260026	-0.120351	 3.875216	-174.971400	-9.551246	 171.529000	-31.897210	-0.765034	-3.927474	-3.656616	-3.353689	-1.373835	 176.698100	-7.544110	 175.926900	-41.572750	-0.978729	-7.134737	-51.993660	 1.487866	-5.715818	-167.032100	-28.279910	-175.116000	-9.062923	 0.683515	-8.047166	-38.461880	 5.871773	-21.148080	-158.412500	-25.410040	-172.808700	-14.724410	-1.090102	-12.547330	-43.814350	 3.111567	-12.954390	 49.688390	 53.765820	-56.530710	-20.810670	 3.803959	 8.623093	-30.770470	-2.362319	 9.390638
 0.043088	-0.057425	 0.863762	 97.686030	-0.009242	-88.620080	-178.449100	 1.435734	-0.141009	 3.255494	-3.107080	 19.651720	-7.501798	-0.807955	-45.368090	-2.826673	-1.476238	-62.555950	 170.063500	 6.377934	-4.864134	-0.632961	-0.368016	 19.749360	 9.019401	-7.369246	-39.810220	 0.003016	-0.006121	-62.519590	 0.203542	 0.000000	-4.902169	 0.272436	-1.407277	 9.459274	 1.474390	-0.826158	 13.360070	-92.919480	 18.029550	 1.691545	-70.187770	 9.505646	 17.973570	-1.366799	-6.545659	-20.214050	 16.414280	-17.872880	-4.723506	-2.685999	 11.479670	 13.861230	-17.217440	-0.385393	-0.516138	-17.353200	-0.466277	 0.628653	-3.826318	 8.297524	 8.630521	-31.067530	-2.331623	 0.982469	-26.366440	-2.391580	 7.949242	-15.800560	-14.875490	 0.716113	-9.541341	 4.340975	 7.344800	-34.314000	-2.294957	 15.594260	-12.938250	-9.362942	 4.854461	-33.381600	-0.543337	 10.437330	-20.829170	-5.046890	 7.521304	 111.736600	 49.854200	-126.323500	-19.032770	 0.543832	-9.628747	-25.348680	-0.976149	-0.758776	-3.755657	-1.162580	-22.994780	-2.274149	-0.609576	 8.100654	 89.661990	-18.084890	-0.891767	 67.730580	-2.525209	 18.438810	-0.505878	 8.514728	-17.928880	 8.261824	-0.111850	 3.865582	-174.971400	-9.551247	 171.528900	-31.897270	-0.765022	-3.927480	-3.656648	-3.353689	-1.373837	 176.698000	-7.544106	 175.926800	-41.572800	-0.978724	-7.134743	-51.993620	 1.487855	-5.715814	-167.032100	-28.279910	-175.116000	-9.062977	 0.683526	-8.047194	-38.461880	 5.871773	-21.148080	-158.412500	-25.410050	-172.808700	-14.724400	-1.090104	-12.547330	-43.814250	 3.111545	-12.954350	 49.688370	 53.765820	-56.530710	-20.810670	 3.803959	 8.623093	-30.770490	-2.362326	 9.390644
 0.043088	-0.057424	 0.863713	 97.686040	-0.009230	-88.620090	-178.450900	 1.474538	-0.147977	 3.245284	-3.103646	 19.667720	-7.504178	-0.850199	-45.381160	-2.826674	-1.476236	-62.555960	 170.059500	 6.339759	-4.871898	-0.617021	-0.372142	 19.763030	 9.017918	-7.325534	-39.822260	 0.003016	-0.006121	-62.519590	 0.203542	 0.000000	-4.902169	 0.273385	-1.407081	 9.470575	 1.473569	-0.826426	 13.303610	-92.919480	 18.029540	 1.691566	-70.192570	 9.521732	 17.898750	-1.365957	-6.554838	-20.187190	 16.407410	-17.881560	-4.758163	-2.685962	 11.479660	 13.861230	-17.217490	-0.385399	-0.516139	-17.353180	-0.466277	 0.628653	-3.826321	 8.297520	 8.630501	-31.067550	-2.331622	 0.982470	-26.366450	-2.391581	 7.949243	-15.800560	-14.875490	 0.716088	-9.541363	 4.340974	 7.344813	-34.314000	-2.294957	 15.594260	-12.938240	-9.362938	 4.854457	-33.381580	-0.543335	 10.437330	-20.829160	-5.046888	 7.521297	 111.736600	 49.854200	-126.323500	-19.032770	 0.543832	-9.628747	-25.348680	-0.976149	-0.758776	-3.756347	-1.161039	-22.971610	-2.274849	-0.609385	 8.117379	 89.662030	-18.084890	-0.891782	 67.727950	-2.533617	 18.443340	-0.503698	 8.516220	-18.036280	 8.263797	-0.101287	 3.855257	-174.971500	-9.551233	 171.528900	-31.897330	-0.765025	-3.927486	-3.656648	-3.353689	-1.373837	 176.698100	-7.544108	 175.926800	-41.572730	-0.978732	-7.134733	-51.993660	 1.487866	-5.715818	-167.032000	-28.279910	-175.116000	-9.062985	 0.683527	-8.047198	-38.461910	 5.871787	-21.148100	-158.412400	-25.410030	-172.808700	-14.724380	-1.090107	-12.547320	-43.814230	 3.111536	-12.954340	 49.688370	 53.765820	-56.530710	-20.810660	 3.803960	 8.623089	-30.770470	-2.362319	 9.390638
